<?xml version="1.0" standalone="no"?>
<!DOCTYPE svg PUBLIC "-//W3C//DTD SVG 20010904//EN"
 "http://www.w3.org/TR/2001/REC-SVG-20010904/DTD/svg10.dtd">
<svg version="1.0" xmlns="http://www.w3.org/2000/svg"
 width="217" height="46" viewBox="0 0 666.000000 294.000000"
 preserveAspectRatio="xMidYMid meet">

<g transform="translate(0.000000,294.000000) scale(0.100000,-0.100000)"
fill="#000000" stroke="none">
<path d="M4603 2900 c-69 -42 -89 -117 -51 -189 40 -74 115 -100 188 -63 99
49 109 196 17 252 -42 26 -112 26 -154 0z"/>
<path d="M756 2872 c-11 -18 -446 -1117 -446 -1127 0 -3 58 -5 129 -5 l129 0
33 90 32 90 220 -2 220 -3 31 -87 31 -88 137 0 136 0 -33 83 c-18 45 -119 301
-225 570 l-193 487 -98 0 c-54 0 -100 -4 -103 -8z m170 -546 c35 -98 64 -184
64 -192 0 -11 -26 -14 -140 -14 -117 0 -140 2 -140 15 0 8 17 61 39 117 21 57
51 138 66 181 15 43 32 76 38 74 5 -1 38 -83 73 -181z"/>
<path d="M6150 2833 c-52 -8 -96 -15 -97 -16 -1 -1 -5 -69 -9 -150 l-7 -147
-53 0 -54 0 0 -105 0 -105 54 0 53 0 6 -192 c5 -206 14 -251 62 -314 13 -17
48 -44 77 -58 44 -22 65 -26 138 -26 91 0 207 30 217 56 2 7 -6 50 -19 96 -20
70 -27 83 -44 80 -84 -13 -103 -13 -123 -2 -40 21 -51 68 -51 220 l0 140 94 0
c52 0 97 4 100 8 2 4 8 51 12 105 l7 97 -107 0 -106 0 0 165 0 165 -27 -1
c-16 -1 -71 -8 -123 -16z"/>
<path d="M1867 2521 c-27 -11 -63 -31 -82 -45 -18 -14 -36 -26 -39 -26 -3 0
-6 16 -6 35 l0 35 -110 0 -110 0 0 -576 0 -577 77 7 c42 3 98 6 125 6 l48 0 0
206 c0 113 3 204 8 202 136 -68 136 -68 212 -68 94 0 131 11 197 56 99 68 153
179 161 327 10 201 -56 340 -194 408 -68 33 -216 38 -287 10z m163 -199 c44
-32 70 -98 70 -177 0 -92 -15 -142 -54 -181 -67 -67 -171 -65 -248 4 l-38 34
0 128 0 128 33 28 c77 65 176 80 237 36z"/>
<path d="M2878 2521 c-25 -10 -60 -28 -76 -40 -41 -28 -52 -27 -52 9 l0 30
-108 0 -109 0 -6 -127 c-4 -71 -7 -330 -7 -577 l0 -449 83 6 c45 4 103 7 130
7 l47 0 0 206 c0 113 3 204 8 202 140 -71 138 -71 235 -66 107 5 136 17 212
89 78 74 118 167 123 287 7 160 -27 269 -111 352 -63 64 -117 85 -227 87 -74
2 -105 -1 -142 -16z m162 -199 c44 -32 70 -98 70 -175 0 -88 -16 -141 -55
-182 -64 -68 -170 -67 -247 3 l-38 34 0 123 c0 143 6 156 93 200 43 22 61 25
102 21 27 -3 61 -14 75 -24z"/>
<path d="M3775 2519 c-115 -40 -187 -103 -243 -211 -25 -49 -27 -62 -27 -178
0 -115 2 -130 27 -182 54 -115 166 -202 295 -228 79 -17 215 -8 287 18 172 62
277 231 263 422 -11 157 -85 268 -225 337 -74 37 -80 38 -196 41 -102 2 -130
-1 -181 -19z m260 -202 c80 -45 117 -172 80 -278 -19 -54 -49 -86 -100 -110
-52 -24 -95 -24 -155 2 -116 50 -153 212 -74 331 49 76 166 102 249 55z"/>
<path d="M5395 2523 c-22 -9 -63 -31 -92 -49 -28 -18 -54 -30 -57 -27 -3 4 -6
21 -6 40 l0 33 -108 0 -109 0 -6 -122 c-4 -66 -7 -242 -7 -390 l0 -268 130 0
130 0 0 263 c0 261 0 264 23 284 57 53 158 70 206 37 46 -33 51 -65 51 -334
l0 -250 131 0 130 0 -3 298 c-3 288 -4 299 -27 350 -28 62 -93 124 -149 140
-57 17 -189 14 -237 -5z"/>
<path d="M4550 2130 l0 -390 125 0 125 0 0 390 0 390 -125 0 -125 0 0 -390z"/>
<path d="M4880 1384 c-8 -1 -45 -6 -82 -9 l-68 -7 0 -214 c0 -118 -2 -214 -4
-214 -2 0 -30 12 -62 28 -52 24 -71 27 -154 27 -78 -1 -103 -5 -142 -24 -161
-78 -241 -254 -210 -461 29 -200 149 -325 323 -338 82 -6 153 11 214 49 57 36
65 36 65 -1 l0 -30 115 0 115 0 0 600 0 600 -47 -1 c-27 -1 -55 -3 -63 -5z
m-215 -601 c73 -37 75 -42 75 -194 l0 -137 -39 -35 c-128 -116 -286 -40 -299
142 -8 116 43 216 124 241 35 11 99 3 139 -17z"/>
<path d="M1900 760 l0 -570 120 0 120 0 0 330 c0 182 4 330 9 330 4 0 68 -104
142 -230 l133 -231 54 3 54 3 133 225 c73 123 138 226 144 228 8 3 11 -88 11
-327 l0 -331 115 0 115 0 0 570 0 570 -107 0 -108 0 -22 -38 c-162 -279 -326
-547 -336 -547 -11 0 -91 130 -290 469 l-68 116 -110 0 -109 0 0 -570z"/>
<path d="M3522 985 c-69 -19 -105 -39 -152 -81 -93 -84 -136 -200 -127 -344
12 -198 115 -329 297 -376 121 -31 297 -5 402 59 l37 22 -36 81 -35 81 -50
-24 c-66 -32 -146 -47 -202 -39 -72 11 -137 65 -152 129 l-6 27 266 0 266 0 0
59 c0 186 -76 324 -214 387 -74 34 -210 43 -294 19z m219 -201 c24 -23 49 -76
49 -106 0 -5 -66 -8 -146 -8 l-146 0 6 33 c21 106 160 155 237 81z"/>
</g>
</svg>
